<svg xmlns="http://www.w3.org/2000/svg" viewBox="0 0 400 65"><path fill="#fff" d="M373.7 49.9c-5.5 0-11.2-4.6-11.2-11.2 0-5.7 4.4-10.7 11.2-10.7 6.4 0 11 4.4 11 10.7 0 5.7-4.2 11.2-11 11.2zm0 15.1c14.5 0 26.3-11.6 26.3-26.1 0-14.4-11.8-26.1-26.3-26.1s-26.3 11.8-26.3 26.1c0 14.5 11.8 26.1 26.3 26.1zm-51.9-.2h10.9V49.7h-10.9c-5.3 0-11-4.4-11-11.2V25.8h12.7V12.2h-12.9V0h-14.9v38.7c0 14.3 11.6 26.1 26.1 26.1zm-98.4-.2h15.3V38.5c0-5.5 4.2-11.2 11.2-11.2 6.3 0 10.7 5 10.7 11.2v26.1h15.1V38.5c0-14-10.9-26.5-25.9-26.5-14.7 0-26.3 11.8-26.3 26.5v26.1zm-56.2-15.2c-5.7 0-11-4.2-11-11.2 0-6.1 5-10.7 11-10.7 6.1 0 11 4.6 11 10.7.1 6.6-4.5 11.2-11 11.2zm-62 15.6c8.3 0 15.8-3.9 20.6-9.8h.2l-11-10.9c-1.8 3.3-5.5 5.7-9.8 5.7-6.1 0-11-5-11-11 0-6.3 5-11.2 11-11.2 3.1 0 5.9 1.3 7.9 3.3h.2l10.5-10.7c-4.8-4.8-11.2-7.7-18.6-7.7-14.5 0-26.5 11.8-26.5 26.1S90.7 65 105.2 65zm-78.9-.4h36.1V50.3H50.2c1.7-3.3 2.4-7.9 2.4-12 0-13.6-11.2-25.8-26.3-25.8C11.8 12.6 0 24 0 38.3c0 14.9 11.6 26.3 26.3 26.3zm0-15.2c-5.7 0-11-4.2-11-11.2 0-5.3 4.4-10.7 11-10.7 6.1 0 11.2 4.8 11.2 10.7 0 5.6-4.2 11.2-11.2 11.2zm140.9 15.2h36.1V50.3h-12.1c0 .2 2.4-4.6 2.4-12 0-13.6-11.2-25.8-26.3-25.8-14.5 0-26.3 11.4-26.3 25.8-.1 14.7 11.3 26.3 26.2 26.3z"/></svg>