<svg xmlns="http://www.w3.org/2000/svg" viewBox="0 0 100 100"><path d="M50.2 25.6h-.1c-8.3-.1-15.1 6.7-15.2 15s6.7 15.1 15 15.2 15.1-6.7 15.2-15v-.1c.1-8.4-6.6-15-14.9-15.1zm8.7 15.1c0 4.9-3.9 8.7-8.7 8.9-4.9.1-8.9-3.9-9-8.7-.1-4.9 3.9-8.9 8.7-9s8.9 3.9 9 8.7v.1zm30-1.4c-1.5-21-18.6-37.5-39-37.5s-37.5 16.5-39 37.5c-.5 9.7 2.4 19.3 8.3 27 .1 0 .1 0 .1.1l23.5 28.7c3.3 3.9 9.2 4.5 13.1 1.2.5-.3.8-.7 1.1-1.2l23.5-28.7c0-.1 0-.1.1-.1 5.9-7.7 8.8-17.3 8.3-27zM75.1 62.1L51.6 90.8c-.8.9-2.3 1-3.2.2l-.2-.2-23.6-28.7c-4.8-6.3-7.3-14.3-6.9-22.3 1-15.2 13.3-31 32.1-31s31.1 15.8 32.1 31c.6 8-1.9 15.9-6.8 22.3z"/></svg>