<svg xmlns="http://www.w3.org/2000/svg" viewBox="0 0 100 100"><path d="M50 1.5C23.2 1.5 1.5 23.2 1.5 50c0 20.5 12.8 38.1 30.8 45.2-.4-3.8-.8-9.7.2-13.9l5.7-24.1s-1.4-2.9-1.4-7.2c0-6.7 3.9-11.8 8.8-11.8 4.1 0 6.1 3.1 6.1 6.8 0 4.1-2.6 10.4-4 16.2-1.2 4.8 2.4 8.8 7.2 8.8 8.6 0 15.2-9.1 15.2-22.2C70 36.1 61.7 28 49.7 28c-13.8 0-21.9 10.3-21.9 21 0 4.1 1.6 8.6 3.6 11.1.4.5.4.9.3 1.4L30.3 67c-.2.9-.7 1.1-1.6.6-6-2.9-9.7-11.7-9.7-18.8 0-15.3 11.1-29.3 32-29.3 16.8 0 29.9 12 29.9 28 0 16.7-10.5 30.2-25.1 30.2-4.9 0-9.5-2.6-11.1-5.6l-3 11.5c-1.1 4.2-4 9.5-6 12.7 4.5 1.4 9.3 2.2 14.4 2.2 26.8 0 48.5-21.7 48.5-48.5C98.5 23.2 76.8 1.5 50 1.5z" fill-rule="evenodd"/></svg>