<svg xmlns="http://www.w3.org/2000/svg" viewBox="0 0 100 100"><path d="M45.16 12.753c-8.777 0-16.88 3.376-23.18 9.677s-9.677 14.404-9.677 23.18S15.68 62.5 21.98 68.8c6.077 6.077 14.404 9.677 23.18 9.677S62.264 75.09 68.34 68.8s9.68-14.4 9.68-23.18-3.376-16.88-9.677-23.18c-6.077-6.302-14.404-9.677-23.18-9.677zm51.54 84.17c-1.007 1.025-2.4 1.594-3.826 1.575a5.43 5.43 0 0 1-3.826-1.575l-16.88-16.88c-7.652 5.85-17.104 9.227-26.782 9.227a43.57 43.57 0 0 1-31.058-12.828A43.57 43.57 0 0 1 1.5 45.386a43.57 43.57 0 0 1 12.828-31.058A43.57 43.57 0 0 1 45.386 1.5a43.57 43.57 0 0 1 31.058 12.828 43.57 43.57 0 0 1 12.828 31.058c0 9.677-3.15 19.13-9.227 26.782l16.88 16.88c1.025 1.007 1.594 2.4 1.575 3.826 0 1.35-.675 3.15-1.8 4.05z"/></svg>