<svg xmlns="http://www.w3.org/2000/svg" xmlns:xlink="http://www.w3.org/1999/xlink" viewBox="0 0 100 100"><path d="M20.6 92.4h59.2L50.2 57.3zm0-84.8l29.6 35.1L79.8 7.6z"/><use xlink:href="#A"/><use xlink:href="#A" x="5.8"/><use xlink:href="#B"/><use xlink:href="#A" x="17.7"/><path d="M25.8 54.9l-.7-.5 1.5-2 .7.5-1.5 2zm3-4l-.7-.5 1.5-2 .7.5-1.5 2zm3.1-4l-.7-.5 1.5-2 .7.5-1.5 2z"/><use xlink:href="#A" x="29.6"/><path d="M37.6 54.9l-.6-.5 1.5-2 .7.5-1.6 2zm3-4l-.6-.5 1.5-2 .7.5-1.6 2zm3-4l-.6-.5 1.5-2 .7.5-1.6 2zm0 8l-.6-.5 1.5-2 .7.5-1.6 2zm3.1-4l-.7-.5 1.5-2 .7.5-1.5 2zm3-4l-.7-.5 1.5-2 .7.5-1.5 2z"/><use xlink:href="#A" x="47.3"/><path d="M55.4 54.9l-.7-.5 1.5-2 .7.5-1.5 2zm3.1-4l-.7-.5 1.3-2 .7.5-1.3 2zm3-4l-.7-.5 1.5-2 .7.5-1.5 2z"/><use xlink:href="#A" x="59.2"/><use xlink:href="#A" x="65"/><use xlink:href="#B" x="59.2"/><use xlink:href="#A" x="76.9"/><path d="M85.1 54.9l-.8-.5 1.5-2 .7.5-1.4 2zm3-4l-.7-.5 1.5-2 .7.5-1.5 2zm3-4l-.7-.5 1.5-2 .7.5-1.5 2z"/><use xlink:href="#A" x="88.8"/><defs><path id="A" d="M2.2 54.9l-.7-.5 1.5-2 .7.5-1.5 2zm3-4l-.7-.5 1.5-2 .7.5-1.5 2zm3-4l-.7-.5 1.5-2 .7.5-1.5 2z"/><path id="B" d="M14 54.9l-.7-.5 1.5-2 .7.5-1.5 2zm3.1-4l-.7-.5 1.5-2 .7.5-1.5 2zm3-4l-.7-.5 1.5-2 .7.5-1.5 2z"/></defs></svg>