<svg xmlns="http://www.w3.org/2000/svg" viewBox="0 0 100 100"><path d="M51.1 38.8a1.57 1.57 0 0 0-2.2 0l-16.8 18c-.6.6-.6 1.6 0 2.3.6.6 1.6.7 2.2 0l14.2-15.2v32c0 .9.7 1.6 1.5 1.6s1.5-.7 1.5-1.6v-32l14.2 15.2a1.57 1.57 0 0 0 2.2 0c.6-.6.6-1.7 0-2.3l-16.8-18zM73 28.5H27c-.8 0-1.5.7-1.5 1.6s.7 1.6 1.5 1.6h46c.8 0 1.5-.7 1.5-1.6s-.7-1.6-1.5-1.6zm-23-27C23.3 1.5 1.5 23.3 1.5 50S23.3 98.5 50 98.5 98.5 76.7 98.5 50 76.7 1.5 50 1.5zm0 93.7C25.1 95.2 4.8 74.9 4.8 50S25.1 4.8 50 4.8 95.2 25.1 95.2 50 74.9 95.2 50 95.2z"/></svg>