<svg xmlns="http://www.w3.org/2000/svg" width="26" height="26"><path d="M7.75.5h10.5a7.26 7.26 0 0 1 7.25 7.25v10.5a7.25 7.25 0 0 1-7.25 7.25H7.75A7.26 7.26 0 0 1 .5 18.25V7.75A7.25 7.25 0 0 1 7.75.5M7.5 3A4.5 4.5 0 0 0 3 7.5v11A4.5 4.5 0 0 0 7.5 23h11a4.5 4.5 0 0 0 4.5-4.5v-11A4.5 4.5 0 0 0 18.5 3h-11m12.063 1.875c.863 0 1.563.7 1.563 1.563S20.425 8 19.563 8 18 7.3 18 6.437s.7-1.563 1.563-1.563M13 6.75a6.25 6.25 0 0 1 0 12.5 6.25 6.25 0 0 1 0-12.5m0 2.5a3.75 3.75 0 1 0 0 7.5 3.75 3.75 0 1 0 0-7.5z" fill="#3f3e3e" fill-rule="evenodd"/></svg>