<svg xmlns="http://www.w3.org/2000/svg" viewBox="0 0 100 100" fill-rule="evenodd"><path d="M98.2 30.4c-.2-5.1-1.1-8.6-2.2-11.7-1.2-3.2-2.9-5.9-5.6-8.5-2.7-2.7-5.4-4.3-8.6-5.6-3.1-1.2-6.6-2-11.7-2.2C65 2.1 63.3 2 50.2 2s-14.8.1-19.9.3-8.7 1-11.7 2.2c-3.2 1.2-5.9 2.9-8.6 5.6s-4.3 5.4-5.6 8.5c-1.2 3.1-2 6.6-2.2 11.7s-.3 6.8-.3 19.9l.3 19.9c.2 5.1 1.1 8.6 2.2 11.7 1.2 3.2 2.9 5.9 5.6 8.5 2.7 2.7 5.4 4.3 8.6 5.6 3.1 1.2 6.6 2 11.7 2.2 5.2.2 6.8.3 19.9.3s14.8-.1 19.9-.3 8.7-1 11.7-2.2c3.2-1.2 5.9-2.9 8.6-5.6s4.3-5.4 5.6-8.5c1.2-3.1 2-6.6 2.2-11.7s.3-6.8.3-19.9-.1-14.7-.3-19.8zm-8.7 39.3c-.2 4.7-1 7.3-1.7 9-.9 2.3-1.9 3.9-3.6 5.5-1.7 1.7-3.3 2.7-5.6 3.6-1.7.7-4.3 1.4-9 1.7-5.1.2-6.6.3-19.5.3s-14.4 0-19.5-.3c-4.7-.2-7.3-1-9-1.7-2.3-.9-3.9-1.9-5.6-3.6s-2.7-3.3-3.6-5.5c-.7-1.7-1.4-4.3-1.7-9-.2-5.1-.3-6.6-.3-19.5s0-14.4.3-19.5c.2-4.7 1-7.3 1.7-9 .9-2.3 1.9-3.9 3.6-5.5 1.7-1.7 3.3-2.7 5.6-3.6 1.7-.7 4.3-1.4 9-1.7 5.1-.2 6.6-.3 19.5-.3s14.4 0 19.5.3c4.7.2 7.3 1 9 1.7 2.3.9 3.9 1.9 5.6 3.6s2.7 3.3 3.6 5.5c.7 1.7 1.4 4.3 1.7 9 .2 5.1.3 6.6.3 19.5s-.1 14.4-.3 19.5zM51.9 26.2C37.6 26.2 26 37 26 50.3s11.6 24.2 25.9 24.2 25.9-10.8 25.9-24.2-11.6-24.1-25.9-24.1zm0 39.8c-9.3 0-16.8-7-16.8-15.7s7.5-15.7 16.8-15.7 16.8 7 16.8 15.7S61.2 66 51.9 66zm24.2-46.8c-2.9 0-5.2 2.3-5.2 5.2s2.3 5.2 5.2 5.2 5.2-2.3 5.2-5.2c0-2.8-2.3-5.2-5.2-5.2z"/></svg>