<svg xmlns="http://www.w3.org/2000/svg" viewBox="0 0 100 100"><path d="M47.9 33.4c-3.9 0-7.5 1.5-10.3 4.3s-4.3 6.4-4.3 10.3 1.5 7.5 4.3 10.3c2.7 2.7 6.4 4.3 10.3 4.3s7.6-1.5 10.3-4.3 4.3-6.4 4.3-10.3-1.5-7.5-4.3-10.3c-2.7-2.8-6.4-4.3-10.3-4.3zM50 1.5C23.2 1.5 1.5 23.2 1.5 50S23.2 98.5 50 98.5 98.5 76.8 98.5 50 76.8 1.5 50 1.5zm20.8 69.3a2.34 2.34 0 0 1-1.7.7c-.7 0-1.3-.3-1.7-.7l-7.5-7.5c-3.4 2.6-7.6 4.1-11.9 4.1a19.36 19.36 0 0 1-13.8-5.7 19.36 19.36 0 0 1-5.7-13.8 19.36 19.36 0 0 1 5.7-13.8A19.36 19.36 0 0 1 48 28.4a19.36 19.36 0 0 1 13.8 5.7 19.36 19.36 0 0 1 5.7 13.8c0 4.3-1.4 8.5-4.1 11.9l7.5 7.5a2.34 2.34 0 0 1 .7 1.7c0 .6-.3 1.4-.8 1.8z"/></svg>