<?xml version="1.0" encoding="UTF-8"?>
<svg viewBox="0 0 41 33" xmlns="http://www.w3.org/2000/svg">
<path fill="#053579" d="M41 3.882a16.916 16.916 0 0 1-4.821 1.34 8.358 8.358 0 0 0 3.684-4.62c-1.626.97-3.43 1.65-5.33 2.038C32.984.97 30.809 0 28.339 0c-4.605 0-8.368 3.727-8.368 8.328 0 .66.078 1.3.215 1.902A23.976 23.976 0 0 1 2.861 1.534a8.179 8.179 0 0 0-1.136 4.173c0 2.892 1.47 5.455 3.743 6.91-1.392 0-2.685-.388-3.822-.97v.058c0 4.038 2.9 7.416 6.742 8.173a8.347 8.347 0 0 1-3.782.136 8.378 8.378 0 0 0 7.839 5.784C9.584 28.05 5.958 29.37 1.999 29.37c-.666 0-1.333-.039-1.999-.116A23.968 23.968 0 0 0 12.896 33c15.443 0 23.93-12.695 23.93-23.702 0-.369 0-.718-.02-1.087A16.71 16.71 0 0 0 41 3.882z" fill="#053579"/>
</svg>
