<svg xmlns="http://www.w3.org/2000/svg" viewBox="0 0 100 100"><path d="M50 1.5C23.2 1.5 1.5 23.2 1.5 50S23.2 98.5 50 98.5 98.5 76.8 98.5 50 76.8 1.5 50 1.5zm23.1 37.2v1.5c0 15.1-12 32.5-34 32.5-6.7 0-13-1.9-18.2-5.2.9.1 1.9.2 2.8.2 5.6 0 10.7-1.8 14.8-4.9-5.2-.1-9.6-3.4-11.1-7.9.7.1 1.5.2 2.3.2 1.1 0 2.2-.1 3.1-.4-5.5-1.1-9.6-5.7-9.6-11.2v-.1c1.6.9 3.4 1.4 5.4 1.4-3.2-2-5.3-5.5-5.3-9.5 0-2.1.6-4 1.6-5.7 5.9 6.9 14.7 11.5 24.6 11.9a10.9 10.9 0 0 1-.3-2.6c0-6.3 5.3-11.4 11.9-11.4a12.32 12.32 0 0 1 8.7 3.6c2.7-.5 5.3-1.5 7.6-2.8-.9 2.7-2.8 4.9-5.2 6.3 2.4-.3 4.7-.9 6.9-1.8-1.6 2.2-3.7 4.2-6 5.9z"/></svg>