<svg xmlns="http://www.w3.org/2000/svg" viewBox="0 0 26 18"><path d="M10.5 12.75L16.988 9 10.5 5.25v7.5m14.45-9.787c.163.588.275 1.375.35 2.375l.125 2.612L25.5 9c0 2.738-.2 4.75-.55 6.038-.312 1.125-1.037 1.85-2.162 2.162-.588.163-1.663.275-3.312.35l-4.488.125L13 17.75c-5.238 0-8.5-.2-9.787-.55-1.125-.312-1.85-1.037-2.163-2.162-.162-.588-.275-1.375-.35-2.375L.575 10.05.5 9c0-2.738.2-4.75.55-6.037C1.362 1.838 2.088 1.112 3.213.8 3.8.638 4.875.525 6.525.45l4.487-.125L13 .25c5.238 0 8.5.2 9.788.55 1.125.313 1.85 1.038 2.162 2.163z" fill="#053579" fill-rule="evenodd"/></svg>